<svg data-v-423bf9ae="" xmlns="http://www.w3.org/2000/svg" viewBox="0 0 356 90" class="iconLeft"><!----><!----><!----><g data-v-423bf9ae="" id="7fbbc053-046a-4eba-881e-bbffa1128f04" fill="black" transform="matrix(4.230566156794088,0,0,4.230566156794088,108.85774984752467,3.5880475939751904)"><path d="M4.03 3.22L4.03 3.22Q3.88 3.54 3.64 3.78L3.64 3.78L3.64 3.78Q3.54 3.88 3.51 3.93L3.51 3.93L3.51 3.93Q3.47 3.99 3.47 4.09L3.47 4.09L3.47 4.09Q3.47 5.40 3.39 6.84L3.39 6.84L3.39 6.84Q3.30 8.27 3.29 8.55L3.29 8.55L3.29 8.55Q3.19 10.05 3.14 11.07L3.14 11.07L3.14 11.07Q3.09 12.08 3.09 13.13L3.09 13.13L3.09 13.13Q3.09 14.45 3.16 15.43L3.16 15.43L3.16 15.48L3.16 15.48Q3.16 15.65 3.21 15.67L3.21 15.67L3.21 15.67Q3.25 15.69 3.47 15.71L3.47 15.71L3.47 15.71Q3.67 15.72 3.79 15.71L3.79 15.71L3.79 15.71Q3.91 15.71 4.03 15.71L4.03 15.71L4.03 15.71Q4.07 15.71 4.22 15.71L4.22 15.71L4.22 15.71Q4.37 15.72 4.61 15.71L4.61 15.71L4.91 15.71L4.91 13.97L4.91 12.81L4.91 12.81Q5.04 12.68 5.19 12.68L5.19 12.68L5.19 12.68Q5.31 12.68 5.39 12.73L5.39 12.73L5.39 12.73Q5.47 12.78 5.50 12.81L5.50 12.81L5.50 12.81Q5.85 13.16 5.85 14.01L5.85 14.01L5.85 14.01Q5.85 14.38 5.81 14.76L5.81 14.76L5.81 14.76Q5.78 15.23 5.78 15.43L5.78 15.43L5.78 15.43Q5.78 15.51 5.84 15.74L5.84 15.74L5.84 15.74Q5.91 16.13 5.91 16.21L5.91 16.21L5.91 16.21Q5.91 16.46 5.78 16.59L5.78 16.59L5.78 16.59Q5.14 16.70 4.48 16.72L4.48 16.72L4.48 16.72Q4.05 16.73 3.21 16.73L3.21 16.73L3.21 16.73Q2.38 16.73 1.86 16.75L1.86 16.75L1.86 16.75Q1.34 16.77 0.85 16.87L0.85 16.87L0.85 16.87Q0.70 16.73 0.55 16.65L0.55 16.65L0.55 16.65Q0.39 16.56 0.33 16.49L0.33 16.49L0.33 16.49Q0.27 16.42 0.27 16.28L0.27 16.28L0.27 16.28Q0.27 16.10 0.41 16.05L0.41 16.05L0.41 16.05Q0.56 16.00 0.85 16.00L0.85 16.00L0.85 16.00Q1.05 15.81 1.09 15.58L1.09 15.58L1.09 15.58Q1.13 15.36 1.13 14.84L1.13 14.84L1.13 14.84Q1.33 13.89 1.38 12.69L1.38 12.69L1.38 12.69Q1.43 11.49 1.43 9.91L1.43 9.91L1.43 9.60L1.43 7.01L1.43 7.01Q1.43 6.05 1.38 5.36L1.38 5.36L1.38 5.36Q1.33 4.68 1.13 4.09L1.13 4.09L1.13 4.09Q1.13 3.96 1.08 3.91L1.08 3.91L1.08 3.91Q1.02 3.85 0.87 3.75L0.87 3.75L0.87 3.75Q0.67 3.64 0.55 3.53L0.55 3.53L0.55 2.94L0.85 2.94L0.85 2.94Q1.30 2.94 1.96 2.87L1.96 2.87L1.96 2.87Q2.11 2.86 2.51 2.83L2.51 2.83L2.51 2.83Q2.91 2.80 3.23 2.80L3.23 2.80L3.23 2.80Q3.63 2.80 3.81 2.83L3.81 2.83L3.81 2.83Q3.98 2.84 4.01 2.88L4.01 2.88L4.01 2.88Q4.05 2.93 4.04 3.04L4.04 3.04L4.04 3.04Q4.03 3.15 4.03 3.22L4.03 3.22ZM9.72 3.85L9.72 3.85Q9.59 4.19 9.59 4.66L9.59 4.66L9.59 4.66Q9.59 5.04 9.66 5.50L9.66 5.50L9.66 5.50Q9.67 5.60 9.70 5.90L9.70 5.90L9.70 5.90Q9.73 6.20 9.72 6.44L9.72 6.44L9.72 6.44Q9.69 7.29 9.60 9.17L9.60 9.17L9.60 9.17Q9.53 10.77 9.48 12.49L9.48 12.49L9.48 12.49Q9.42 14.21 9.42 15.65L9.42 15.65L9.42 15.65Q9.56 15.79 9.87 15.95L9.87 15.95L9.87 15.95Q10.15 16.09 10.28 16.21L10.28 16.21L10.28 16.21Q10.28 16.34 10.22 16.40L10.22 16.40L10.22 16.40Q10.16 16.46 10.02 16.56L10.02 16.56L10.02 16.56Q9.86 16.66 9.72 16.80L9.72 16.80L9.72 16.80Q9.56 16.73 9.18 16.67L9.18 16.67L9.18 16.67Q8.99 16.66 8.53 16.66L8.53 16.66L8.53 16.66Q8.05 16.66 7.74 16.63L7.74 16.63L7.74 16.63Q7.42 16.60 7.13 16.51L7.13 16.51L7.13 16.51Q7.10 16.49 7.05 16.41L7.05 16.41L7.05 16.41Q7.00 16.32 7.00 16.21L7.00 16.21L7.00 16.21Q7.00 16.06 7.13 15.95L7.13 15.95L7.13 15.95Q7.13 15.85 7.17 15.83L7.17 15.83L7.17 15.83Q7.21 15.81 7.31 15.81L7.31 15.81L7.31 15.81Q7.43 15.81 7.49 15.79L7.49 15.79L7.49 15.79Q7.63 15.74 7.69 15.65L7.69 15.65L7.69 15.65Q7.81 15.53 7.81 15.29L7.81 15.29L7.81 15.29Q7.81 15.18 7.78 15.03L7.78 15.03L7.78 15.03Q7.76 14.88 7.74 14.83L7.74 14.83L7.74 14.83Q7.69 14.57 7.69 14.50L7.69 14.50L7.69 14.50Q7.69 14.07 7.71 13.23L7.71 13.23L7.73 12.00L7.73 12.00Q7.71 11.93 7.70 11.74L7.70 11.74L7.70 11.74Q7.69 11.55 7.69 11.33L7.69 11.33L7.69 8.74L7.69 3.85L7.69 3.85Q7.42 3.85 7.27 3.80L7.27 3.80L7.27 3.80Q7.13 3.75 7.13 3.56L7.13 3.56L7.13 2.98L7.13 2.98Q7.13 2.86 7.22 2.86L7.22 2.86L7.22 2.86Q7.27 2.86 7.50 2.92L7.50 2.92L7.50 2.92Q7.74 2.98 7.98 2.98L7.98 2.98L7.98 2.98Q8.13 2.98 8.64 2.93L8.64 2.93L8.64 2.93Q8.75 2.91 9.04 2.88L9.04 2.88L9.04 2.88Q9.34 2.86 9.56 2.86L9.56 2.86L9.56 2.86Q10.04 2.86 10.28 2.98L10.28 2.98L10.28 2.98Q10.39 3.09 10.39 3.26L10.39 3.26L10.39 3.26Q10.39 3.49 10.20 3.67L10.20 3.67L10.20 3.67Q10.01 3.85 9.72 3.85L9.72 3.85ZM19.42 3.00L19.42 3.00Q19.42 3.12 19.36 3.25L19.36 3.25L19.36 3.25Q19.29 3.37 19.23 3.45L19.23 3.45L19.23 3.45Q19.17 3.53 19.14 3.56L19.14 3.56L18.56 3.56L18.56 3.56Q18.44 3.68 18.44 3.85L18.44 3.85L18.44 3.85Q18.44 3.92 18.49 4.14L18.49 4.14L18.49 4.14Q18.56 4.52 18.56 4.69L18.56 4.69L18.56 7.87L18.56 7.87Q18.56 12.96 18.79 16.17L18.79 16.17L18.79 16.17Q18.80 16.51 18.62 16.66L18.62 16.66L18.62 16.66Q18.44 16.81 18.17 16.81L18.17 16.81L18.17 16.81Q17.98 16.81 17.79 16.74L17.79 16.74L17.79 16.74Q17.60 16.67 17.50 16.58L17.50 16.58L17.50 16.58Q17.39 16.24 17.24 15.80L17.24 15.80L17.24 15.80Q17.09 15.36 16.91 14.80L16.91 14.80L16.91 14.80Q15.89 11.80 15.47 10.32L15.47 10.32L15.47 10.32Q15.34 9.84 15.09 9.28L15.09 9.28L15.09 9.28Q14.84 8.71 14.81 8.65L14.81 8.65L14.81 8.65Q14.73 8.47 14.69 8.35L14.69 8.35L14.69 8.35Q14.64 8.23 14.63 8.20L14.63 8.20L14.63 8.20Q14.52 7.95 14.46 7.56L14.46 7.56L14.46 7.56Q14.39 7.20 14.31 7.01L14.31 7.01L14.31 7.01Q14.22 6.82 13.99 6.69L13.99 6.69L13.99 8.65L13.99 10.89L13.99 13.15L13.99 13.99L13.99 15.39L13.99 15.39Q14.17 15.57 14.36 15.62L14.36 15.62L14.36 15.62Q14.55 15.67 14.81 15.67L14.81 15.67L14.81 15.67Q14.81 15.81 14.84 16.09L14.84 16.09L14.84 16.09Q14.87 16.31 14.87 16.39L14.87 16.39L14.87 16.39Q14.87 16.59 14.79 16.69L14.79 16.69L14.79 16.69Q14.71 16.79 14.50 16.79L14.50 16.79L13.87 16.80L12.00 16.84L12.00 16.84Q11.89 16.84 11.85 16.75L11.85 16.75L11.85 16.75Q11.82 16.66 11.82 16.48L11.82 16.48L11.82 16.48Q11.82 16.28 11.83 16.17L11.83 16.17L11.84 15.75L11.84 15.75Q11.87 15.76 11.96 15.79L11.96 15.79L11.96 15.79Q12.05 15.82 12.14 15.82L12.14 15.82L12.14 15.82Q12.31 15.82 12.31 15.67L12.31 15.67L12.31 15.67Q12.46 15.34 12.46 14.81L12.46 14.81L12.46 14.81Q12.46 14.59 12.43 14.20L12.43 14.20L12.43 14.20Q12.40 13.83 12.40 13.71L12.40 13.71L12.40 13.71Q12.40 13.22 12.35 12.21L12.35 12.21L12.35 12.21Q12.31 11.59 12.31 11.19L12.31 11.19L12.29 9.21L12.29 9.21Q12.29 8.89 12.24 8.36L12.24 8.36L12.24 8.36Q12.18 7.83 12.18 7.56L12.18 7.56L12.18 7.56Q12.18 7.48 12.11 7.13L12.11 7.13L12.11 7.13Q12.03 6.82 12.03 6.69L12.03 6.69L12.03 6.41L12.03 5.56L12.03 5.56Q12.03 5.35 12.01 5.26L12.01 5.26L12.00 4.84L12.00 4.84Q12.00 4.62 11.86 4.28L11.86 4.28L11.86 4.28Q11.75 4.00 11.75 3.88L11.75 3.88L11.75 3.88Q11.34 3.88 11.12 3.71L11.12 3.71L11.12 3.71Q10.89 3.54 10.89 3.32L10.89 3.32L10.89 3.32Q10.89 3.11 11.03 2.95L11.03 2.95L11.03 2.95Q11.17 2.80 11.38 2.80L11.38 2.80L11.38 2.80Q11.49 2.80 11.56 2.79L11.56 2.79L11.56 2.79Q11.62 2.79 11.68 2.79L11.68 2.79L11.68 2.79Q11.80 2.76 12.03 2.74L12.03 2.74L12.03 2.74Q12.12 2.73 12.25 2.75L12.25 2.75L12.25 2.75Q12.38 2.77 12.45 2.77L12.45 2.77L12.45 2.77Q12.73 2.80 12.94 2.80L12.94 2.80L12.94 2.80Q13.10 2.80 13.22 2.91L13.22 2.91L13.22 2.91Q13.33 3.02 13.38 3.15L13.38 3.15L13.38 3.15Q13.43 3.28 13.43 3.32L13.43 3.32L13.43 3.32Q13.97 4.12 14.36 5.01L14.36 5.01L14.36 5.01Q14.76 5.89 15.29 7.28L15.29 7.28L15.29 7.28Q15.75 8.50 15.95 8.93L15.95 8.93L15.95 8.93Q16.13 9.51 16.32 9.93L16.32 9.93L16.32 9.93Q16.52 10.36 16.80 10.89L16.80 10.89L16.80 10.89Q16.80 11.09 16.85 11.26L16.85 11.26L16.85 11.26Q16.90 11.44 17.04 11.76L17.04 11.76L17.04 11.76Q17.08 11.84 17.18 12.21L17.18 12.21L17.18 12.21Q17.29 12.56 17.43 12.94L17.43 12.94L17.43 12.94Q17.57 13.33 17.70 13.50L17.70 13.50L17.70 13.50Q17.72 13.54 17.73 13.49L17.73 13.49L17.73 13.49Q17.74 13.44 17.74 13.34L17.74 13.34L17.74 13.34Q17.74 13.13 17.68 12.40L17.68 12.40L17.68 12.40Q17.63 11.68 17.63 11.47L17.63 11.47L17.63 11.47Q17.63 10.84 17.68 9.27L17.68 9.27L17.68 9.27Q17.74 7.59 17.74 6.65L17.74 6.65L17.74 6.37L17.74 6.37Q17.74 5.94 17.60 5.24L17.60 5.24L17.60 5.24Q17.46 4.54 17.46 4.12L17.46 4.12L17.46 4.12Q17.19 3.85 16.99 3.70L16.99 3.70L16.99 3.70Q16.79 3.56 16.60 3.56L16.60 3.56L16.60 3.56Q16.52 3.47 16.41 3.40L16.41 3.40L16.41 3.40Q16.31 3.32 16.26 3.25L16.26 3.25L16.26 3.25Q16.21 3.18 16.21 3.08L16.21 3.08L16.21 3.08Q16.21 2.93 16.32 2.70L16.32 2.70L16.32 2.70Q16.45 2.70 16.53 2.74L16.53 2.74L16.53 2.74Q16.60 2.79 16.83 2.79L16.83 2.79L16.83 2.79Q17.09 2.79 17.26 2.75L17.26 2.75L17.26 2.75Q17.42 2.72 17.46 2.70L17.46 2.70L17.46 2.70Q17.63 2.74 17.82 2.74L17.82 2.74L17.82 2.74Q17.96 2.74 18.27 2.72L18.27 2.72L18.27 2.72Q18.70 2.69 18.89 2.70L18.89 2.70L18.89 2.70Q19.29 2.73 19.42 3.00L19.42 3.00ZM26.04 5.08L26.04 5.08Q25.97 4.98 25.91 4.82L25.91 4.82L25.91 4.82Q25.90 4.72 25.90 4.51L25.90 4.51L25.90 4.51Q25.90 4.28 25.87 4.16L25.87 4.16L25.87 4.16Q25.84 4.03 25.75 3.95L25.75 3.95L25.75 3.95Q25.47 3.79 25.17 3.65L25.17 3.65L25.17 3.65Q24.53 3.65 24.05 3.70L24.05 3.70L24.05 3.70Q23.56 3.75 23.18 3.95L23.18 3.95L23.18 3.95Q23.03 4.09 22.98 4.30L22.98 4.30L22.98 4.30Q22.93 4.52 22.93 4.90L22.93 4.90L22.93 4.90Q22.93 5.56 22.90 6.26L22.90 6.26L22.89 7.07L22.89 7.07Q22.89 7.28 22.96 7.91L22.96 7.91L22.96 7.91Q23.02 8.33 23.02 8.50L23.02 8.50L23.02 8.50Q23.02 8.83 22.89 9.09L22.89 9.09L22.89 9.09Q23.09 9.25 23.53 9.30L23.53 9.30L23.53 9.30Q23.97 9.35 24.60 9.35L24.60 9.35L24.60 9.35Q24.60 9.00 24.65 8.76L24.65 8.76L24.65 8.76Q24.70 8.51 24.89 8.51L24.89 8.51L24.89 8.51Q25.10 8.51 25.17 8.55L25.17 8.55L25.17 8.55Q25.24 8.58 25.47 8.79L25.47 8.79L25.47 8.79Q25.40 8.93 25.40 9.10L25.40 9.10L25.40 9.10Q25.38 9.17 25.38 9.34L25.38 9.34L25.38 9.34Q25.38 9.63 25.42 9.95L25.42 9.95L25.42 9.95Q25.45 10.35 25.45 10.51L25.45 10.51L25.45 10.51Q25.45 10.79 25.39 10.94L25.39 10.94L25.39 10.94Q25.33 11.09 25.17 11.09L25.17 11.09L25.17 11.09Q25.13 11.06 24.99 10.98L24.99 10.98L24.99 10.98Q24.85 10.89 24.72 10.77L24.72 10.77L24.72 10.77Q24.60 10.64 24.60 10.51L24.60 10.51L24.60 10.22L23.18 10.22L23.18 10.22Q23.03 10.67 23.03 11.41L23.03 11.41L23.03 11.41Q23.03 11.89 23.07 12.35L23.07 12.35L23.07 12.35Q23.10 12.91 23.10 13.12L23.10 13.12L23.10 13.12Q23.10 13.17 23.14 14.64L23.14 14.64L23.14 14.64Q23.18 15.26 23.18 15.65L23.18 15.65L23.18 15.65Q23.76 15.85 24.21 15.89L24.21 15.89L24.21 15.89Q24.67 15.93 25.47 15.93L25.47 15.93L25.47 15.93Q25.68 15.83 25.72 15.64L25.72 15.64L25.72 15.64Q25.76 15.51 25.76 15.23L25.76 15.23L25.76 15.23Q25.76 14.94 25.81 14.78L25.81 14.78L25.81 14.78Q25.86 14.62 26.04 14.52L26.04 14.52L26.04 14.52Q26.42 14.52 26.52 14.90L26.52 14.90L26.52 14.90Q26.61 15.29 26.61 15.93L26.61 15.93L26.61 15.93Q26.61 16.13 26.48 16.30L26.48 16.30L26.48 16.30Q26.35 16.48 26.04 16.80L26.04 16.80L24.60 16.80L24.60 16.80Q23.17 16.80 22.17 16.75L22.17 16.75L22.17 16.75Q21.17 16.70 20.03 16.51L20.03 16.51L20.03 15.93L21.18 15.93L21.18 15.93Q21.31 15.19 21.31 14.31L21.31 14.31L21.31 14.31Q21.31 13.82 21.25 12.78L21.25 12.78L21.25 12.78Q21.18 11.87 21.18 11.09L21.18 11.09L21.18 10.51L21.18 7.64L21.18 6.51L21.18 3.95L20.03 3.95L20.03 3.37L20.03 3.37Q20.62 3.22 21.80 3.08L21.80 3.08L21.80 3.08Q22.92 2.94 23.46 2.80L23.46 2.80L26.32 2.80L26.32 2.80Q26.35 2.83 26.42 2.91L26.42 2.91L26.42 2.91Q26.49 2.98 26.55 3.12L26.55 3.12L26.55 3.12Q26.61 3.25 26.61 3.37L26.61 3.37L26.61 3.37Q26.61 3.54 26.68 3.85L26.68 3.85L26.68 3.85Q26.75 4.34 26.75 4.44L26.75 4.44L26.75 4.44Q26.75 4.75 26.60 4.91L26.60 4.91L26.60 4.91Q26.45 5.08 26.04 5.08L26.04 5.08ZM31.88 7.71L31.88 7.71Q31.88 7.85 31.96 7.92L31.96 7.92L31.96 7.92Q32.05 7.98 32.30 8.09L32.30 8.09L32.30 8.09Q32.47 8.15 32.73 8.29L32.73 8.29L32.73 8.29Q33.21 8.76 33.54 9.59L33.54 9.59L33.54 9.59Q33.87 10.42 33.87 11.42L33.87 11.42L33.87 11.42Q33.92 11.77 33.92 12.24L33.92 12.24L33.92 12.24Q33.92 13.58 33.36 14.80L33.36 14.80L33.36 14.80Q32.79 16.02 31.88 16.58L31.88 16.58L31.88 16.58Q31.49 16.77 31.07 16.81L31.07 16.81L31.07 16.81Q30.66 16.86 29.88 16.86L29.88 16.86L29.88 16.86Q29.58 16.86 29.02 16.72L29.02 16.72L29.02 16.72Q28.43 16.58 28.15 16.58L28.15 16.58L28.15 16.58Q27.80 16.58 27.64 16.55L27.64 16.55L27.64 16.55Q27.48 16.52 27.39 16.40L27.39 16.40L27.39 16.40Q27.30 16.28 27.30 16.00L27.30 16.00L27.30 15.71L28.15 15.71L28.15 15.71Q28.24 15.36 28.29 14.59L28.29 14.59L28.29 14.59Q28.31 14.20 28.31 13.38L28.31 13.38L28.31 13.38Q28.31 12.56 28.33 11.99L28.33 11.99L28.33 11.99Q28.35 11.42 28.45 10.85L28.45 10.85L28.45 10.29L28.45 8.86L28.45 5.99L28.45 3.71L28.45 3.71Q27.87 3.71 27.59 3.61L27.59 3.61L27.59 3.61Q27.30 3.51 27.30 3.14L27.30 3.14L27.30 3.14Q27.48 2.95 27.82 2.91L27.82 2.91L27.82 2.91Q28.15 2.86 28.73 2.86L28.73 2.86L28.73 2.86Q30.16 2.86 30.97 2.95L30.97 2.95L30.97 2.95Q31.78 3.05 32.16 3.43L32.16 3.43L32.16 3.43Q32.21 3.54 32.26 3.63L32.26 3.63L32.26 3.63Q32.31 3.71 32.34 3.78L32.34 3.78L32.34 3.78Q32.55 4.14 32.64 4.42L32.64 4.42L32.64 4.42Q32.73 4.70 32.73 5.14L32.73 5.14L32.73 5.14Q32.80 5.33 32.80 5.63L32.80 5.63L32.80 5.63Q32.80 6.16 32.53 6.74L32.53 6.74L32.53 6.74Q32.26 7.32 31.88 7.71L31.88 7.71ZM30.16 3.71L30.16 3.71Q29.96 3.91 29.92 4.13L29.92 4.13L29.92 4.13Q29.88 4.35 29.88 4.86L29.88 4.86L29.88 4.86Q29.88 5.64 29.92 6.06L29.92 6.06L29.92 6.06Q29.96 6.47 30.16 6.86L30.16 6.86L30.16 6.86Q30.23 6.93 30.31 6.93L30.31 6.93L30.31 6.93Q30.42 6.93 30.53 6.83L30.53 6.83L30.53 6.83Q30.65 6.72 30.80 6.52L30.80 6.52L31.01 6.29L31.01 6.29Q31.21 5.73 31.31 5.31L31.31 5.31L31.31 5.31Q31.42 4.90 31.42 4.56L31.42 4.56L31.42 4.56Q31.42 4.23 31.30 4.00L31.30 4.00L31.30 4.00Q31.11 3.81 30.81 3.76L30.81 3.76L30.81 3.76Q30.51 3.71 30.16 3.71L30.16 3.71ZM31.30 15.43L31.88 14.85L31.88 14.85Q32.06 14.67 32.11 14.37L32.11 14.37L32.11 14.37Q32.16 14.07 32.16 13.72L32.16 13.72L32.16 13.72Q32.37 13.50 32.40 13.43L32.40 13.43L32.40 13.43Q32.44 13.36 32.44 13.15L32.44 13.15L32.44 13.15Q32.56 12.89 32.56 12.42L32.56 12.42L32.56 12.42Q32.56 12.22 32.49 11.49L32.49 11.49L32.49 11.49Q32.44 10.99 32.44 10.85L32.44 10.85L32.45 10.37L32.45 10.37Q32.45 10.21 32.41 10.05L32.41 10.05L32.41 10.05Q32.37 9.90 32.24 9.65L32.24 9.65L32.24 9.65Q32.24 9.65 32.25 9.63L32.25 9.63L32.25 9.63Q32.26 9.60 32.26 9.58L32.26 9.58L32.23 9.37L32.23 9.37Q32.21 9.32 32.15 9.18L32.15 9.18L32.15 9.18Q32.09 9.04 32.00 8.85L32.00 8.85L32.00 8.85Q31.58 8.43 31.09 8.21L31.09 8.21L31.09 8.21Q30.60 7.99 30.16 7.99L30.16 7.99L30.16 7.99Q29.97 8.19 29.93 8.49L29.93 8.49L29.93 8.49Q29.88 8.79 29.88 9.14L29.88 9.14L29.88 13.72L29.88 15.71L29.88 15.71Q30.44 15.71 30.77 15.66L30.77 15.66L30.77 15.66Q31.11 15.61 31.30 15.43L31.30 15.43ZM42.66 2.91L42.66 2.91Q42.66 3.25 42.62 3.48L42.62 3.48L42.62 3.48Q42.57 3.71 42.41 3.71L42.41 3.71L41.58 3.71L41.58 3.71Q41.47 4.06 41.05 5.53L41.05 5.53L41.05 5.53Q40.77 6.61 40.54 7.37L40.54 7.37L40.54 7.37Q40.31 8.13 39.98 8.79L39.98 8.79L39.98 8.79Q39.79 8.99 39.72 9.21L39.72 9.21L39.72 9.21Q39.65 9.42 39.65 9.73L39.65 9.73L39.66 10.21L39.66 10.21Q39.69 10.63 39.69 10.92L39.69 10.92L39.69 10.92Q39.62 11.05 39.62 11.33L39.62 11.33L39.62 11.33Q39.62 11.55 39.68 12.00L39.68 12.00L39.68 12.00Q39.69 12.11 39.70 12.25L39.70 12.25L39.70 12.25Q39.72 12.39 39.72 12.53L39.72 12.53L39.72 12.53Q39.72 12.77 39.69 13.36L39.69 13.36L39.69 13.36Q39.66 13.97 39.66 14.31L39.66 14.31L39.66 14.31Q39.66 15.41 39.98 15.74L39.98 15.74L39.98 15.74Q40.04 15.74 40.22 15.74L40.22 15.74L40.22 15.74Q40.39 15.75 40.55 15.81L40.55 15.81L40.55 15.81Q40.71 15.86 40.71 15.97L40.71 15.97L40.71 15.97Q40.73 16.03 40.77 16.19L40.77 16.19L40.77 16.19Q40.81 16.35 40.81 16.49L40.81 16.49L40.81 16.49Q40.81 16.73 40.67 16.77L40.67 16.77L40.67 16.77Q40.22 16.88 39.70 16.88L39.70 16.88L39.70 16.88Q39.40 16.88 38.89 16.83L38.89 16.83L38.89 16.83Q38.53 16.80 38.39 16.80L38.39 16.80L37.04 16.80L37.04 16.80Q36.86 16.62 36.86 16.41L36.86 16.41L36.86 16.41Q36.86 16.20 37.04 16.00L37.04 16.00L37.04 16.00Q37.16 15.90 37.30 15.89L37.30 15.89L37.30 15.89Q37.39 15.88 37.59 15.88L37.59 15.88L37.59 15.88Q37.80 15.88 37.92 15.86L37.92 15.86L37.92 15.86Q38.04 15.83 38.12 15.74L38.12 15.74L38.14 13.73L38.14 13.73Q38.14 11.73 37.87 10.33L37.87 10.33L37.87 10.33Q37.60 8.93 36.79 8.25L36.79 8.25L36.79 8.25Q36.60 7.66 36.15 6.69L36.15 6.69L35.99 6.37L35.99 6.37Q35.71 5.53 35.58 4.97L35.58 4.97L35.58 4.97Q35.45 4.41 35.45 3.71L35.45 3.71L35.45 3.71Q35.11 3.71 34.88 3.67L34.88 3.67L34.88 3.67Q34.65 3.63 34.65 3.46L34.65 3.46L34.65 3.46Q34.62 3.07 34.83 2.91L34.83 2.91L34.83 2.91Q35.04 2.74 35.42 2.74L35.42 2.74L35.42 2.74Q35.66 2.74 36.05 2.80L36.05 2.80L36.05 2.80Q36.30 2.84 36.50 2.84L36.50 2.84L36.50 2.84Q36.76 2.84 37.30 2.87L37.30 2.87L37.30 2.87Q37.72 2.91 38.12 2.91L38.12 2.91L38.12 2.91Q38.30 3.09 38.35 3.27L38.35 3.27L38.35 3.27Q38.39 3.44 38.39 3.71L38.39 3.71L38.39 3.71Q38.28 3.71 38.08 3.68L38.08 3.68L38.08 3.68Q37.88 3.64 37.76 3.64L37.76 3.64L37.76 3.64Q37.49 3.64 37.35 3.78L37.35 3.78L37.35 3.78Q37.42 4.02 37.44 4.36L37.44 4.36L37.44 4.36Q37.45 4.70 37.46 4.84L37.46 4.84L37.46 4.84Q37.48 5.03 37.55 5.43L37.55 5.43L37.55 5.43Q37.56 5.52 37.58 5.62L37.58 5.62L37.58 5.62Q37.59 5.73 37.59 5.85L37.59 5.85L37.59 5.85Q37.80 6.66 38.16 7.40L38.16 7.40L38.16 7.40Q38.53 8.13 38.92 8.53L38.92 8.53L38.92 8.53Q39.17 8.40 39.30 8.17L39.30 8.17L39.30 8.17Q39.44 7.94 39.62 7.48L39.62 7.48L39.62 7.48Q39.75 7.11 39.89 6.80L39.89 6.80L39.89 6.80Q40.18 6.19 40.36 5.40L40.36 5.40L40.36 5.40Q40.53 4.62 40.54 3.98L40.54 3.98L40.54 3.98Q40.54 3.85 40.45 3.79L40.45 3.79L40.45 3.79Q40.36 3.72 40.12 3.64L40.12 3.64L40.12 3.64Q39.87 3.56 39.71 3.46L39.71 3.46L39.71 3.46Q39.55 3.36 39.47 3.18L39.47 3.18L39.47 3.18Q39.47 2.84 40.36 2.84L40.36 2.84L40.36 2.84Q40.78 2.84 41.20 2.88L41.20 2.88L41.20 2.88Q41.68 2.91 41.86 2.91L41.86 2.91L41.86 2.91Q41.97 2.91 42.14 2.84L42.14 2.84L42.14 2.84Q42.31 2.79 42.41 2.79L42.41 2.79L42.41 2.79Q42.55 2.79 42.66 2.91L42.66 2.91ZM50.26 5.45L50.26 5.45Q50.19 5.38 50.13 5.18L50.13 5.18L50.13 5.18Q50.12 5.07 50.12 4.83L50.12 4.83L50.12 4.83Q50.12 4.56 50.09 4.37L50.09 4.37L50.09 4.37Q50.06 4.17 49.97 3.98L49.97 3.98L49.97 3.98Q49.84 3.85 49.52 3.85L49.52 3.85L49.52 3.85Q49.24 3.85 48.86 3.92L48.86 3.92L48.86 3.92Q48.41 3.98 48.23 3.98L48.23 3.98L48.23 3.98Q48.10 4.23 48.10 4.65L48.10 4.65L48.10 4.65Q48.10 4.98 48.17 5.40L48.17 5.40L48.17 5.40Q48.23 5.85 48.23 6.03L48.23 6.03L48.23 11.55L48.23 13.90L48.23 14.49L48.23 14.49Q48.23 14.80 48.19 15.06L48.19 15.06L48.19 15.06Q48.16 15.37 48.16 15.53L48.16 15.53L48.16 15.53Q48.16 15.79 48.23 15.95L48.23 15.95L48.23 15.95Q48.26 16.02 48.34 16.04L48.34 16.04L48.34 16.04Q48.43 16.07 48.49 16.09L48.49 16.09L48.49 16.09Q48.55 16.10 48.58 16.10L48.58 16.10L48.58 16.10Q48.82 16.13 48.96 16.21L48.96 16.21L48.96 16.21Q49.10 16.28 49.10 16.52L49.10 16.52L49.10 16.52Q49.07 16.55 48.99 16.62L48.99 16.62L48.99 16.62Q48.90 16.69 48.77 16.75L48.77 16.75L48.77 16.75Q48.64 16.81 48.51 16.81L48.51 16.81L45.88 16.81L45.88 16.81Q45.68 16.81 45.63 16.67L45.63 16.67L45.63 16.67Q45.58 16.52 45.58 16.23L45.58 16.23L45.58 16.23Q45.74 16.23 46.02 16.09L46.02 16.09L46.02 16.09Q46.30 15.95 46.45 15.95L46.45 15.95L46.47 13.50L46.47 13.50Q46.47 12.74 46.45 12.43L46.45 12.43L46.45 12.43Q46.44 12.03 46.44 11.26L46.44 11.26L46.45 8.95L46.45 7.49L46.45 6.90L46.45 6.90Q46.45 5.81 46.40 5.19L46.40 5.19L46.40 5.19Q46.35 4.58 46.16 3.98L46.16 3.98L46.16 3.98Q45.82 3.88 45.43 3.88L45.43 3.88L45.36 3.88L45.36 3.88Q44.67 3.88 44.23 4.18L44.23 4.18L44.23 4.18Q43.79 4.48 43.79 5.10L43.79 5.10L43.79 5.10Q43.79 5.25 43.83 5.45L43.83 5.45L43.83 5.45Q43.82 5.47 43.73 5.52L43.73 5.52L43.73 5.52Q43.64 5.57 43.54 5.57L43.54 5.57L43.54 5.57Q43.39 5.57 43.26 5.45L43.26 5.45L43.26 5.45Q43.26 5.28 43.20 4.83L43.20 4.83L43.20 4.83Q43.13 4.20 43.13 4.06L43.13 4.06L43.13 4.06Q43.13 3.64 43.26 3.39L43.26 3.39L43.26 3.39Q43.75 3.14 44.20 3.01L44.20 3.01L44.20 3.01Q44.65 2.88 45.25 2.88L45.25 2.88L45.25 2.88Q45.68 2.88 46.69 2.86L46.69 2.86L46.69 2.86Q47.49 2.81 48.23 2.81L48.23 2.81L48.23 2.81Q49.27 2.81 49.96 2.91L49.96 2.91L49.96 2.91Q50.65 3.01 50.83 3.39L50.83 3.39L50.83 3.39Q51.02 3.91 51.02 4.40L51.02 4.40L51.02 4.40Q51.02 4.86 50.83 5.15L50.83 5.15L50.83 5.15Q50.65 5.45 50.26 5.45L50.26 5.45ZM57.57 5.08L57.57 5.08Q57.50 4.98 57.44 4.82L57.44 4.82L57.44 4.82Q57.43 4.72 57.43 4.51L57.43 4.51L57.43 4.51Q57.43 4.28 57.40 4.16L57.40 4.16L57.40 4.16Q57.37 4.03 57.27 3.95L57.27 3.95L57.27 3.95Q56.99 3.79 56.70 3.65L56.70 3.65L56.70 3.65Q56.06 3.65 55.57 3.70L55.57 3.70L55.57 3.70Q55.09 3.75 54.71 3.95L54.71 3.95L54.71 3.95Q54.56 4.09 54.51 4.30L54.51 4.30L54.51 4.30Q54.46 4.52 54.46 4.90L54.46 4.90L54.46 4.90Q54.46 5.56 54.43 6.26L54.43 6.26L54.42 7.07L54.42 7.07Q54.42 7.28 54.49 7.91L54.49 7.91L54.49 7.91Q54.54 8.33 54.54 8.50L54.54 8.50L54.54 8.50Q54.54 8.83 54.42 9.09L54.42 9.09L54.42 9.09Q54.61 9.25 55.05 9.30L55.05 9.30L55.05 9.30Q55.50 9.35 56.13 9.35L56.13 9.35L56.13 9.35Q56.13 9.00 56.17 8.76L56.17 8.76L56.17 8.76Q56.22 8.51 56.42 8.51L56.42 8.51L56.42 8.51Q56.63 8.51 56.70 8.55L56.70 8.55L56.70 8.55Q56.77 8.58 56.99 8.79L56.99 8.79L56.99 8.79Q56.92 8.93 56.92 9.10L56.92 9.10L56.92 9.10Q56.91 9.17 56.91 9.34L56.91 9.34L56.91 9.34Q56.91 9.63 56.95 9.95L56.95 9.95L56.95 9.95Q56.98 10.35 56.98 10.51L56.98 10.51L56.98 10.51Q56.98 10.79 56.92 10.94L56.92 10.94L56.92 10.94Q56.85 11.09 56.70 11.09L56.70 11.09L56.70 11.09Q56.66 11.06 56.52 10.98L56.52 10.98L56.52 10.98Q56.38 10.89 56.25 10.77L56.25 10.77L56.25 10.77Q56.13 10.64 56.13 10.51L56.13 10.51L56.13 10.22L54.71 10.22L54.71 10.22Q54.56 10.67 54.56 11.41L54.56 11.41L54.56 11.41Q54.56 11.89 54.60 12.35L54.60 12.35L54.60 12.35Q54.63 12.91 54.63 13.12L54.63 13.12L54.63 13.12Q54.63 13.17 54.67 14.64L54.67 14.64L54.67 14.64Q54.71 15.26 54.71 15.65L54.71 15.65L54.71 15.65Q55.29 15.85 55.74 15.89L55.74 15.89L55.74 15.89Q56.20 15.93 56.99 15.93L56.99 15.93L56.99 15.93Q57.20 15.83 57.25 15.64L57.25 15.64L57.25 15.64Q57.29 15.51 57.29 15.23L57.29 15.23L57.29 15.23Q57.29 14.94 57.34 14.78L57.34 14.78L57.34 14.78Q57.39 14.62 57.57 14.52L57.57 14.52L57.57 14.52Q57.95 14.52 58.04 14.90L58.04 14.90L58.04 14.90Q58.14 15.29 58.14 15.93L58.14 15.93L58.14 15.93Q58.14 16.13 58.01 16.30L58.01 16.30L58.01 16.30Q57.88 16.48 57.57 16.80L57.57 16.80L56.13 16.80L56.13 16.80Q54.70 16.80 53.70 16.75L53.70 16.75L53.70 16.75Q52.70 16.70 51.56 16.51L51.56 16.51L51.56 15.93L52.71 15.93L52.71 15.93Q52.84 15.19 52.84 14.31L52.84 14.31L52.84 14.31Q52.84 13.82 52.78 12.78L52.78 12.78L52.78 12.78Q52.71 11.87 52.71 11.09L52.71 11.09L52.71 10.51L52.71 7.64L52.71 6.51L52.71 3.95L51.56 3.95L51.56 3.37L51.56 3.37Q52.15 3.22 53.33 3.08L53.33 3.08L53.33 3.08Q54.45 2.94 54.99 2.80L54.99 2.80L57.85 2.80L57.85 2.80Q57.88 2.83 57.95 2.91L57.95 2.91L57.95 2.91Q58.02 2.98 58.08 3.12L58.08 3.12L58.08 3.12Q58.14 3.25 58.14 3.37L58.14 3.37L58.14 3.37Q58.14 3.54 58.21 3.85L58.21 3.85L58.21 3.85Q58.28 4.34 58.28 4.44L58.28 4.44L58.28 4.44Q58.28 4.75 58.13 4.91L58.13 4.91L58.13 4.91Q57.97 5.08 57.57 5.08L57.57 5.08Z"></path></g><!----><g data-v-423bf9ae="" id="549e2533-8228-41ee-be52-dc9948568148" transform="matrix(2.8125,0,0,2.8125,0,0)" stroke="none" fill="black"><path d="M15.965 16.258l.707-.707 10.39 10.39-.707.707z"></path><path d="M4.935 26.357L26.018 5.274l.707.707L5.642 27.065z"></path><path d="M31 1v4.194h-4.194V1H31m1-1h-6.194v6.194H32V0zM31 26.806V31h-4.194v-4.194H31m1-1h-6.194V32H32v-6.194zM5.194 26.806V31H1v-4.194h4.194m1-1H0V32h6.194v-6.194z"></path></g><!----></svg>